<!DOCTYPE svg PUBLIC "-//W3C//DTD SVG 20010904//EN" "http://www.w3.org/TR/2001/REC-SVG-20010904/DTD/svg10.dtd">
<svg version="1.0" xmlns="http://www.w3.org/2000/svg" width="643px" height="629px" viewBox="0 0 6430 6290" preserveAspectRatio="xMidYMid meet">
<g id="layer101" fill="#34a853" stroke="none">
<path d="M3110 5449 c-329 -24 -698 -143 -1007 -325 -305 -179 -576 -440 -778 -749 -349 -532 -467 -1211 -319 -1835 158 -664 610 -1244 1215 -1557 351 -182 688 -263 1099 -263 335 0 568 43 865 157 229 89 482 244 655 402 l55 50 -325 325 c-179 179 -330 326 -336 326 -6 0 -19 -10 -30 -21 -71 -81 -288 -207 -444 -259 -158 -52 -309 -73 -485 -67 -167 6 -267 23 -400 68 -438 149 -784 506 -924 954 -32 105 -71 338 -71 430 0 96 39 327 75 440 41 131 119 290 200 406 78 112 268 300 375 370 148 98 313 170 485 210 89 21 124 24 320 24 237 0 318 -12 494 -71 333 -112 605 -363 727 -669 26 -67 63 -196 64 -222 0 -10 -137 -13 -650 -13 l-650 0 0 -455 0 -455 1114 0 1114 0 11 63 c38 227 40 611 3 847 -59 371 -184 696 -376 978 -436 640 -1201 975 -2076 911z"/>
</g>
<g id="layer102" fill="#ea4335" stroke="none">
<path d="M1160 4077 c-220 -484 -275 -1027 -154 -1537 158 -664 610 -1244 1215 -1557 351 -182 688 -263 1099 -263 335 0 568 43 865 157 229 89 482 244 655 402 l55 50 -325 325 c-179 179 -330 326 -336 326 -6 0 -19 -10 -30 -21 -71 -81 -288 -207 -444 -259 -158 -52 -309 -73 -485 -67 -167 6 -267 23 -400 68 -438 149 -784 506 -924 954 -32 105 -71 338 -71 430 0 77 37 317 61 399 17 57 18 71 7 81 -9 9 -654 508 -744 577 -7 5 -22 -17 -44 -65z"/>
</g>
<g id="layer103" fill="#4285f4" stroke="none">
<path d="M4520 4603 c-201 -156 -365 -288 -365 -293 0 -5 16 -21 35 -35 104 -77 238 -231 307 -355 51 -92 122 -292 123 -347 0 -10 -137 -13 -650 -13 l-650 0 0 -455 0 -455 1114 0 1114 0 11 63 c38 227 40 611 3 847 -59 371 -184 696 -376 978 -61 89 -187 240 -253 303 l-48 46 -365 -284z"/>
</g>
<g id="layer104" fill="#fbbc05" stroke="none">
<path d="M1160 4077 c-220 -484 -275 -1027 -154 -1537 35 -146 104 -343 162 -461 l27 -57 360 280 c198 154 371 287 383 297 l24 17 -21 70 c-24 82 -61 322 -61 399 0 77 37 317 61 399 17 57 18 71 7 81 -9 9 -654 508 -744 577 -7 5 -22 -17 -44 -65z"/>
</g>


</svg>