<!DOCTYPE svg PUBLIC "-//W3C//DTD SVG 20010904//EN" "http://www.w3.org/TR/2001/REC-SVG-20010904/DTD/svg10.dtd">
<svg version="1.0" xmlns="http://www.w3.org/2000/svg" width="431px" height="284px" viewBox="0 0 4310 2840" preserveAspectRatio="xMidYMid meet">
<g id="layer101" fill="#ff9605" stroke="none">
 <path d="M3716 2736 c-155 -60 -245 -100 -256 -114 -14 -17 -42 -27 -123 -42 -57 -11 -153 -36 -213 -55 -133 -42 -371 -143 -425 -181 -103 -71 -284 -265 -402 -430 -37 -51 -73 -89 -98 -103 l-39 -22 0 26 c0 47 -41 149 -82 202 -27 36 -57 61 -95 79 -48 24 -58 26 -93 15 -36 -10 -100 -69 -100 -91 0 -6 -25 -10 -56 -10 -72 0 -108 -25 -142 -98 -22 -48 -24 -64 -19 -129 l6 -74 -42 24 c-92 53 -1258 698 -1291 713 -33 16 -36 16 -61 0 -37 -25 -61 -79 -48 -109 7 -16 216 -147 654 -412 354 -214 661 -399 682 -412 l37 -23 -30 -28 c-17 -15 -37 -45 -45 -67 -8 -22 -19 -39 -25 -37 -10 2 -506 335 -1148 769 -96 65 -162 103 -178 103 -35 0 -84 -53 -84 -91 0 -15 9 -36 19 -46 11 -10 335 -247 720 -528 385 -280 700 -513 701 -516 0 -3 -12 -12 -26 -19 -75 -41 -69 -149 12 -221 71 -65 104 -100 168 -187 36 -48 80 -96 98 -108 18 -11 121 -58 228 -104 172 -74 203 -85 268 -88 57 -3 86 1 136 19 l65 22 220 -159 c121 -87 232 -166 245 -174 40 -24 73 -4 133 79 51 71 63 109 45 138 -5 7 -83 64 -175 127 l-167 114 80 32 c44 18 105 47 135 66 l56 33 107 -65 c149 -89 160 -88 228 27 68 117 63 140 -44 198 -86 46 -87 47 -74 63 23 28 193 415 248 567 59 159 127 242 252 303 62 31 63 31 96 13 32 -17 37 -17 217 14 278 48 288 50 299 72 14 26 13 333 -1 434 -27 200 -97 384 -180 479 -43 48 -123 107 -143 105 -6 0 -118 -42 -250 -93z"/>
 </g>
<g id="layer102" fill="#ffffff" stroke="none">
 <path d="M3958 2823 c7 -3 16 -2 19 1 4 3 -2 6 -13 5 -11 0 -14 -3 -6 -6z"/>
 <path d="M3806 2649 c-82 -32 -150 -60 -152 -62 -2 -2 21 -29 51 -61 64 -67 116 -168 146 -281 18 -68 32 -260 29 -406 0 -3 69 6 153 21 l152 26 -1 165 c-1 233 -37 397 -116 532 -28 49 -96 128 -108 126 -3 -1 -72 -27 -154 -60z"/>
 <path d="M3538 2505 c-3 -4 -66 -17 -141 -30 -151 -28 -312 -78 -494 -155 -98 -42 -137 -64 -196 -115 -90 -76 -215 -216 -310 -345 -39 -52 -79 -103 -91 -113 -28 -23 -124 -72 -158 -81 -16 -3 -28 -13 -28 -21 0 -20 -37 -38 -66 -31 -33 9 -39 42 -21 120 23 99 3 168 -67 236 -41 39 -63 35 -80 -13 -8 -21 -2 -40 33 -109 35 -70 43 -97 51 -175 9 -82 28 -162 50 -203 5 -8 28 -26 52 -39 l44 -23 59 37 c116 74 224 176 250 238 54 127 79 171 148 264 70 93 178 195 259 246 52 33 98 17 98 -34 0 -22 -12 -36 -63 -72 -81 -58 -225 -209 -270 -284 -19 -32 -42 -84 -51 -115 -22 -77 -91 -166 -192 -247 -81 -66 -176 -125 -413 -257 -173 -96 -213 -140 -214 -236 -1 -57 26 -92 83 -109 33 -10 44 -7 140 39 58 27 168 73 245 103 164 63 200 83 372 206 163 118 219 147 285 145 57 -1 106 -26 127 -64 13 -23 13 -29 -2 -52 -20 -29 -51 -33 -81 -11 -38 29 -81 18 -167 -39 -80 -54 -81 -54 -58 -69 13 -8 107 -61 208 -117 183 -101 185 -102 200 -81 23 31 195 420 240 543 48 133 77 184 149 257 66 66 124 103 225 140 l72 27 -1 129 c-1 220 -51 374 -152 468 -50 46 -63 53 -74 42z"/>
 <path d="M208 2453 c7 -3 16 -2 19 1 4 3 -2 6 -13 5 -11 0 -14 -3 -6 -6z"/>
 <path d="M2609 2273 c-13 -16 -12 -17 4 -4 16 13 21 21 13 21 -2 0 -10 -8 -17 -17z"/>
 <path d="M4280 2270 c0 -7 3 -10 7 -7 3 4 3 10 0 14 -4 3 -7 0 -7 -7z"/>
 <path d="M4291 2184 c0 -11 3 -14 6 -6 3 7 2 16 -1 19 -3 4 -6 -2 -5 -13z"/>
 <path d="M2489 2153 c-13 -16 -12 -17 4 -4 9 7 17 15 17 17 0 8 -8 3 -21 -13z"/>
 <path d="M1908 2113 c6 -2 18 -2 25 0 6 3 1 5 -13 5 -14 0 -19 -2 -12 -5z"/>
 <path d="M2030 2066 c0 -2 8 -10 18 -17 15 -13 16 -12 3 4 -13 16 -21 21 -21 13z"/>
 <path d="M1695 1864 c-18 -38 -17 -63 7 -172 12 -58 18 -64 122 -122 43 -24 58 -29 53 -17 -3 9 -9 51 -13 94 -10 118 -80 253 -132 253 -13 0 -26 -13 -37 -36z"/>
 <path d="M1539 1353 c-21 -57 -4 -89 76 -143 41 -28 77 -50 80 -50 9 0 5 44 -10 100 -26 98 -121 158 -146 93z"/>
 <path d="M1785 1293 c11 -62 16 -65 55 -42 33 21 33 22 15 36 -11 8 -33 21 -49 30 l-29 15 8 -39z"/>
 <path d="M1384 1008 c-4 -7 -3 -8 4 -4 12 7 16 16 8 16 -3 0 -8 -5 -12 -12z"/>
 <path d="M1486 937 c-20 -14 -19 -15 79 -107 26 -25 76 -84 112 -131 75 -100 40 -80 423 -245 32 -14 74 -23 100 -23 99 1 95 6 -112 156 l-194 140 -57 1 c-96 1 -180 59 -209 144 -17 52 -46 78 -88 78 -20 0 -44 -6 -54 -13z"/>
 <path d="M2282 897 c-98 -40 -120 -53 -110 -62 7 -7 101 -71 208 -144 l195 -132 129 56 c71 30 134 59 139 64 8 8 -384 253 -424 265 -8 2 -69 -19 -137 -47z"/>
 <path d="M1415 810 c3 -5 8 -10 11 -10 3 0 2 5 -1 10 -3 6 -8 10 -11 10 -3 0 -2 -4 1 -10z"/>
 <path d="M1515 720 c3 -5 8 -10 11 -10 3 0 2 5 -1 10 -3 6 -8 10 -11 10 -3 0 -2 -4 1 -10z"/>
 <path d="M1555 670 c3 -5 8 -10 11 -10 3 0 2 5 -1 10 -3 6 -8 10 -11 10 -3 0 -2 -4 1 -10z"/>
 <path d="M1640 556 c0 -2 8 -10 18 -17 15 -13 16 -12 3 4 -13 16 -21 21 -21 13z"/>
 <path d="M3015 260 c3 -5 8 -10 11 -10 3 0 2 5 -1 10 -3 6 -8 10 -11 10 -3 0 -2 -4 1 -10z"/>
 </g>

</svg>